<svg width="26" height="26" viewBox="0 0 26 26" fill="none" xmlns="http://www.w3.org/2000/svg">
<path d="M18.9098 14.3C19.8845 14.3 20.7423 13.767 21.1842 12.961L25.8369 4.524C25.9464 4.32695 26.0026 4.10471 25.9999 3.87927C25.9972 3.65383 25.9357 3.433 25.8215 3.23864C25.7073 3.04428 25.5443 2.88312 25.3487 2.7711C25.1531 2.65909 24.9316 2.60011 24.7062 2.6H5.47149L4.24983 0H0V2.6H2.59928L7.278 12.467L5.52348 15.639C4.57474 17.381 5.8224 19.5 7.79785 19.5H23.3936V16.9H7.79785L9.22746 14.3H18.9098ZM6.70615 5.2H22.4968L18.9098 11.7H9.78631L6.70615 5.2ZM7.79785 20.8C6.36825 20.8 5.21157 21.97 5.21157 23.4C5.21157 24.83 6.36825 26 7.79785 26C9.22746 26 10.3971 24.83 10.3971 23.4C10.3971 21.97 9.22746 20.8 7.79785 20.8ZM20.7943 20.8C19.3647 20.8 18.208 21.97 18.208 23.4C18.208 24.83 19.3647 26 20.7943 26C22.2239 26 23.3936 24.83 23.3936 23.4C23.3936 21.97 22.2239 20.8 20.7943 20.8Z" fill="#454545"/>
</svg>
