<svg width="160" height="160" viewBox="0 0 160 160" fill="none" xmlns="http://www.w3.org/2000/svg">
<path d="M79.9333 13.3333C43.1333 13.3333 13.3333 43.1999 13.3333 79.9999C13.3333 116.8 43.1333 146.667 79.9333 146.667C116.8 146.667 146.667 116.8 146.667 79.9999C146.667 43.1999 116.8 13.3333 79.9333 13.3333ZM80 133.333C50.5333 133.333 26.6666 109.467 26.6666 79.9999C26.6666 50.5333 50.5333 26.6666 80 26.6666C109.467 26.6666 133.333 50.5333 133.333 79.9999C133.333 109.467 109.467 133.333 80 133.333ZM78.5333 46.6666H78.1333C75.4667 46.6666 73.3333 48.7999 73.3333 51.4666V82.9333C73.3333 85.2666 74.5333 87.4666 76.6 88.6666L104.267 105.267C106.533 106.6 109.467 105.933 110.8 103.667C111.135 103.127 111.357 102.525 111.455 101.897C111.552 101.27 111.522 100.629 111.367 100.013C111.211 99.3972 110.933 98.8189 110.55 98.3127C110.166 97.8065 109.684 97.3827 109.133 97.0666L83.3333 81.7333V51.4666C83.3333 48.7999 81.2 46.6666 78.5333 46.6666Z" fill="white"/>
</svg>
