<svg width="26" height="26" viewBox="0 0 26 26" fill="none" xmlns="http://www.w3.org/2000/svg">
<path d="M16.0521 12.9982L25.3597 3.71081C25.7673 3.30315 25.9963 2.75025 25.9963 2.17374C25.9963 1.59723 25.7673 1.04433 25.3597 0.636674C24.9521 0.229019 24.3993 0 23.8229 0C23.2464 0 22.6936 0.229019 22.286 0.636674L13 9.94567L3.71397 0.636674C3.30638 0.229019 2.75356 -4.29535e-09 2.17713 0C1.6007 4.29535e-09 1.04788 0.229019 0.640278 0.636674C0.23268 1.04433 0.00369407 1.59723 0.00369406 2.17374C0.00369406 2.75025 0.23268 3.30315 0.640278 3.71081L9.94795 12.9982L0.640278 22.2855C0.437395 22.4868 0.276364 22.7262 0.166471 22.99C0.0565787 23.2538 0 23.5368 0 23.8226C0 24.1084 0.0565787 24.3913 0.166471 24.6551C0.276364 24.9189 0.437395 25.1584 0.640278 25.3596C0.841503 25.5625 1.08091 25.7236 1.34468 25.8335C1.60845 25.9434 1.89138 26 2.17713 26C2.46288 26 2.7458 25.9434 3.00957 25.8335C3.27334 25.7236 3.51275 25.5625 3.71397 25.3596L13 16.0506L22.286 25.3596C22.4873 25.5625 22.7267 25.7236 22.9904 25.8335C23.2542 25.9434 23.5371 26 23.8229 26C24.1086 26 24.3915 25.9434 24.6553 25.8335C24.9191 25.7236 25.1585 25.5625 25.3597 25.3596C25.5626 25.1584 25.7236 24.9189 25.8335 24.6551C25.9434 24.3913 26 24.1084 26 23.8226C26 23.5368 25.9434 23.2538 25.8335 22.99C25.7236 22.7262 25.5626 22.4868 25.3597 22.2855L16.0521 12.9982Z" fill="white"/>
</svg>
