<svg width="35" height="35" viewBox="0 0 35 35" fill="none" xmlns="http://www.w3.org/2000/svg">
<path d="M16.042 5.83333H5.83366C5.06011 5.83333 4.31824 6.14062 3.77126 6.68761C3.22428 7.23459 2.91699 7.97645 2.91699 8.75V29.1667C2.91699 29.9402 3.22428 30.6821 3.77126 31.2291C4.31824 31.776 5.06011 32.0833 5.83366 32.0833H26.2503C27.0239 32.0833 27.7657 31.776 28.3127 31.2291C28.8597 30.6821 29.167 29.9402 29.167 29.1667V18.9583" stroke="white" stroke-width="3" stroke-linecap="round" stroke-linejoin="round"/>
<path d="M26.9795 3.64583C27.5597 3.06567 28.3465 2.73974 29.167 2.73974C29.9875 2.73974 30.7743 3.06567 31.3545 3.64583C31.9347 4.22599 32.2606 5.01286 32.2606 5.83333C32.2606 6.6538 31.9347 7.44067 31.3545 8.02083L17.5003 21.875L11.667 23.3333L13.1253 17.5L26.9795 3.64583Z" stroke="white" stroke-width="3" stroke-linecap="round" stroke-linejoin="round"/>
</svg>
