<svg width="35" height="35" viewBox="0 0 35 35" fill="none" xmlns="http://www.w3.org/2000/svg">
<mask id="path-1-inside-1" fill="white">
<path d="M28.4375 16.4062C28.4365 15.2322 28.1207 14.0799 27.523 13.0694C26.9253 12.0589 26.0676 11.2272 25.0392 10.6608C25.8143 9.85232 26.2479 8.77623 26.25 7.65625H24.0625C24.0619 8.23623 23.8313 8.7923 23.4212 9.20241C23.011 9.61252 22.455 9.84317 21.875 9.84375C20.1561 9.84603 18.5066 10.5222 17.2806 11.7271C16.0547 12.932 15.35 14.5695 15.318 16.2881C13.9157 14.8598 13.1285 12.9391 13.125 10.9375C13.1221 9.9702 12.7984 9.03118 12.2046 8.26757C11.6109 7.50396 10.7805 6.95891 9.84375 6.71781V4.375H7.65625V6.71781C6.71947 6.95891 5.88914 7.50396 5.29535 8.26757C4.70157 9.03118 4.37788 9.9702 4.375 10.9375V16.4062H2.1875V17.5C2.1875 21.5611 3.80078 25.4559 6.67243 28.3276C9.54408 31.1992 13.4389 32.8125 17.5 32.8125C21.5611 32.8125 25.4559 31.1992 28.3276 28.3276C31.1992 25.4559 32.8125 21.5611 32.8125 17.5V16.4062H28.4375ZM21.875 12.0312C23.0349 12.0327 24.1468 12.4941 24.967 13.3143C25.7872 14.1344 26.2486 15.2464 26.25 16.4062H17.5C17.5014 15.2464 17.9628 14.1344 18.783 13.3143C19.6032 12.4941 20.7151 12.0327 21.875 12.0312ZM6.5625 10.9375C6.5625 10.3573 6.79297 9.80094 7.2032 9.3907C7.61344 8.98047 8.16984 8.75 8.75 8.75C9.33016 8.75 9.88656 8.98047 10.2968 9.3907C10.707 9.80094 10.9375 10.3573 10.9375 10.9375C10.9419 12.8862 11.5251 14.7896 12.6131 16.4062H6.5625V10.9375ZM17.5 30.625C14.2095 30.6209 11.0402 29.3827 8.61833 27.1551C6.19649 24.9275 4.69832 21.8725 4.41984 18.5938H30.5812C30.3028 21.8727 28.8044 24.9278 26.3824 27.1555C23.9603 29.3831 20.7907 30.6212 17.5 30.625Z"/>
</mask>
<path d="M28.4375 16.4062C28.4365 15.2322 28.1207 14.0799 27.523 13.0694C26.9253 12.0589 26.0676 11.2272 25.0392 10.6608C25.8143 9.85232 26.2479 8.77623 26.25 7.65625H24.0625C24.0619 8.23623 23.8313 8.7923 23.4212 9.20241C23.011 9.61252 22.455 9.84317 21.875 9.84375C20.1561 9.84603 18.5066 10.5222 17.2806 11.7271C16.0547 12.932 15.35 14.5695 15.318 16.2881C13.9157 14.8598 13.1285 12.9391 13.125 10.9375C13.1221 9.9702 12.7984 9.03118 12.2046 8.26757C11.6109 7.50396 10.7805 6.95891 9.84375 6.71781V4.375H7.65625V6.71781C6.71947 6.95891 5.88914 7.50396 5.29535 8.26757C4.70157 9.03118 4.37788 9.9702 4.375 10.9375V16.4062H2.1875V17.5C2.1875 21.5611 3.80078 25.4559 6.67243 28.3276C9.54408 31.1992 13.4389 32.8125 17.5 32.8125C21.5611 32.8125 25.4559 31.1992 28.3276 28.3276C31.1992 25.4559 32.8125 21.5611 32.8125 17.5V16.4062H28.4375ZM21.875 12.0312C23.0349 12.0327 24.1468 12.4941 24.967 13.3143C25.7872 14.1344 26.2486 15.2464 26.25 16.4062H17.5C17.5014 15.2464 17.9628 14.1344 18.783 13.3143C19.6032 12.4941 20.7151 12.0327 21.875 12.0312ZM6.5625 10.9375C6.5625 10.3573 6.79297 9.80094 7.2032 9.3907C7.61344 8.98047 8.16984 8.75 8.75 8.75C9.33016 8.75 9.88656 8.98047 10.2968 9.3907C10.707 9.80094 10.9375 10.3573 10.9375 10.9375C10.9419 12.8862 11.5251 14.7896 12.6131 16.4062H6.5625V10.9375ZM17.5 30.625C14.2095 30.6209 11.0402 29.3827 8.61833 27.1551C6.19649 24.9275 4.69832 21.8725 4.41984 18.5938H30.5812C30.3028 21.8727 28.8044 24.9278 26.3824 27.1555C23.9603 29.3831 20.7907 30.6212 17.5 30.625Z" fill="white"/>
<path d="M28.4375 16.4062L23.4375 16.4106L23.4419 21.4062H28.4375V16.4062ZM25.0392 10.6608L21.4299 7.20057L16.9247 11.8999L22.6271 15.0405L25.0392 10.6608ZM26.25 7.65625L31.25 7.66545L31.2592 2.65625H26.25V7.65625ZM24.0625 7.65625V2.65625H19.0675L19.0625 7.65126L24.0625 7.65625ZM21.875 9.84375L21.87 4.84375L21.8684 4.84375L21.875 9.84375ZM15.318 16.2881L11.7501 19.791L20.0949 28.2905L20.3171 16.3814L15.318 16.2881ZM13.125 10.9375L18.125 10.9289L18.125 10.9226L13.125 10.9375ZM9.84375 6.71781H4.84375V10.5939L8.59753 11.56L9.84375 6.71781ZM9.84375 4.375H14.8438V-0.625H9.84375V4.375ZM7.65625 4.375V-0.625H2.65625V4.375H7.65625ZM7.65625 6.71781L8.90247 11.56L12.6562 10.5939V6.71781H7.65625ZM4.375 10.9375L-0.624978 10.9226L-0.625 10.9301V10.9375H4.375ZM4.375 16.4062V21.4062H9.375V16.4062H4.375ZM2.1875 16.4062V11.4062H-2.8125V16.4062H2.1875ZM32.8125 16.4062H37.8125V11.4062H32.8125V16.4062ZM21.875 12.0312L21.8812 7.03124L21.8688 7.03125L21.875 12.0312ZM26.25 16.4062V21.4062H31.2562L31.25 16.4L26.25 16.4062ZM17.5 16.4062L12.5 16.4L12.4938 21.4062H17.5V16.4062ZM8.75 8.75V13.75V8.75ZM10.9375 10.9375H5.93749L5.93751 10.9487L10.9375 10.9375ZM12.6131 16.4062V21.4062H22.0053L16.7611 13.6145L12.6131 16.4062ZM6.5625 16.4062H1.5625V21.4062H6.5625V16.4062ZM4.41984 18.5938V13.5938H-1.02283L-0.562219 19.0169L4.41984 18.5938ZM30.5812 18.5938L35.5633 19.0169L36.0239 13.5938H30.5812V18.5938ZM33.4375 16.4019C33.4357 14.3338 32.8794 12.304 31.8266 10.524L23.2194 15.6149C23.3619 15.8559 23.4373 16.1306 23.4375 16.4106L33.4375 16.4019ZM31.8266 10.524C30.7737 8.74396 29.2629 7.27879 27.4513 6.28109L22.6271 15.0405C22.8723 15.1755 23.0769 15.3739 23.2194 15.6149L31.8266 10.524ZM28.6485 14.121C30.3138 12.3839 31.2456 10.0718 31.25 7.66545L21.25 7.64705C21.2503 7.48062 21.3148 7.32071 21.4299 7.20057L28.6485 14.121ZM26.25 2.65625H24.0625V12.6562H26.25V2.65625ZM19.0625 7.65126C19.0632 6.90689 19.3593 6.19322 19.8856 5.66687L26.9567 12.7379C28.3033 11.3914 29.0606 9.56557 29.0625 7.66124L19.0625 7.65126ZM19.8856 5.66687C20.412 5.14052 21.1256 4.8445 21.87 4.84375L21.88 14.8437C23.7843 14.8418 25.6101 14.0845 26.9567 12.7379L19.8856 5.66687ZM21.8684 4.84375C18.8407 4.84777 15.9352 6.03876 13.7759 8.16104L20.7854 15.2931C21.0779 15.0056 21.4715 14.8443 21.8816 14.8437L21.8684 4.84375ZM13.7759 8.16104C11.6165 10.2833 10.3753 13.1677 10.3188 16.1949L20.3171 16.3814C20.3247 15.9713 20.4929 15.5806 20.7854 15.2931L13.7759 8.16104ZM18.8858 12.7852C18.3993 12.2897 18.1262 11.6233 18.125 10.9289L8.12501 10.9461C8.13072 14.255 9.43201 17.43 11.7501 19.791L18.8858 12.7852ZM18.125 10.9226C18.1188 8.84873 17.4248 6.83547 16.1517 5.19829L8.25755 11.3368C8.17205 11.2269 8.12544 11.0917 8.12502 10.9524L18.125 10.9226ZM16.1517 5.19829C14.8787 3.56111 13.0984 2.39252 11.09 1.87561L8.59753 11.56C8.46263 11.5253 8.34306 11.4468 8.25755 11.3368L16.1517 5.19829ZM14.8438 6.71781V4.375H4.84375V6.71781H14.8438ZM9.84375 -0.625H7.65625V9.375H9.84375V-0.625ZM2.65625 4.375V6.71781H12.6562V4.375H2.65625ZM6.41003 1.87561C4.40157 2.39252 2.62134 3.56111 1.34826 5.19829L9.24245 11.3368C9.15694 11.4468 9.03737 11.5253 8.90247 11.56L6.41003 1.87561ZM1.34826 5.19829C0.0751851 6.83547 -0.618808 8.84873 -0.624978 10.9226L9.37498 10.9524C9.37456 11.0917 9.32795 11.2269 9.24245 11.3368L1.34826 5.19829ZM-0.625 10.9375V16.4062H9.375V10.9375H-0.625ZM4.375 11.4062H2.1875V21.4062H4.375V11.4062ZM-2.8125 16.4062V17.5H7.1875V16.4062H-2.8125ZM-2.8125 17.5C-2.8125 22.8872 -0.672439 28.0538 3.13689 31.8631L10.208 24.792C8.27399 22.8581 7.1875 20.235 7.1875 17.5H-2.8125ZM3.13689 31.8631C6.94623 35.6724 12.1128 37.8125 17.5 37.8125V27.8125C14.765 27.8125 12.1419 26.726 10.208 24.792L3.13689 31.8631ZM17.5 37.8125C22.8872 37.8125 28.0538 35.6724 31.8631 31.8631L24.792 24.792C22.8581 26.726 20.235 27.8125 17.5 27.8125V37.8125ZM31.8631 31.8631C35.6724 28.0538 37.8125 22.8872 37.8125 17.5H27.8125C27.8125 20.235 26.726 22.8581 24.792 24.792L31.8631 31.8631ZM37.8125 17.5V16.4062H27.8125V17.5H37.8125ZM32.8125 11.4062H28.4375V21.4062H32.8125V11.4062ZM21.8688 17.0312C21.7047 17.031 21.5475 16.9658 21.4315 16.8498L28.5025 9.77872C26.7462 8.02241 24.365 7.03435 21.8812 7.03125L21.8688 17.0312ZM21.4315 16.8498C21.3155 16.7338 21.2502 16.5765 21.25 16.4125L31.25 16.4C31.2469 13.9162 30.2588 11.535 28.5025 9.77872L21.4315 16.8498ZM26.25 11.4062H17.5V21.4062H26.25V11.4062ZM22.5 16.4125C22.4998 16.5765 22.4345 16.7338 22.3185 16.8498L15.2475 9.77872C13.4912 11.535 12.5031 13.9162 12.5 16.4L22.5 16.4125ZM22.3185 16.8498C22.2025 16.9658 22.0453 17.031 21.8812 17.0312L21.8688 7.03125C19.385 7.03435 17.0038 8.02241 15.2475 9.77872L22.3185 16.8498ZM11.5625 10.9375C11.5625 11.6834 11.2662 12.3988 10.7387 12.9262L3.66767 5.85517C2.31975 7.20309 1.5625 9.03126 1.5625 10.9375H11.5625ZM10.7387 12.9262C10.2113 13.4537 9.49592 13.75 8.75 13.75V3.75C6.84375 3.75 5.01559 4.50725 3.66767 5.85517L10.7387 12.9262ZM8.75 13.75C8.00408 13.75 7.28871 13.4537 6.76126 12.9262L13.8323 5.85517C12.4844 4.50726 10.6562 3.75 8.75 3.75V13.75ZM6.76126 12.9262C6.23382 12.3988 5.9375 11.6834 5.9375 10.9375H15.9375C15.9375 9.03125 15.1802 7.20309 13.8323 5.85517L6.76126 12.9262ZM5.93751 10.9487C5.94409 13.8882 6.82384 16.7594 8.4651 19.198L16.7611 13.6145C16.2263 12.8198 15.9396 11.8842 15.9375 10.9263L5.93751 10.9487ZM12.6131 11.4062H6.5625V21.4062H12.6131V11.4062ZM11.5625 16.4062V10.9375H1.5625V16.4062H11.5625ZM17.5062 25.625C15.4674 25.6225 13.5038 24.8553 12.0032 23.4751L5.23342 30.8351C8.57656 33.9102 12.9515 35.6194 17.4938 35.625L17.5062 25.625ZM12.0032 23.4751C10.5027 22.0949 9.57445 20.2021 9.40191 18.1706L-0.562219 19.0169C-0.177808 23.5429 1.89029 27.7601 5.23342 30.8351L12.0032 23.4751ZM4.41984 23.5938H30.5812V13.5938H4.41984V23.5938ZM25.5992 18.1706C25.4266 20.2022 24.4983 22.0951 22.9976 23.4753L29.7671 30.8356C33.1106 27.7605 35.1789 23.5432 35.5633 19.0169L25.5992 18.1706ZM22.9976 23.4753C21.4969 24.8556 19.5331 25.6226 17.4942 25.625L17.5058 35.625C22.0483 35.6197 26.4237 33.9107 29.7671 30.8356L22.9976 23.4753Z" fill="white" mask="url(#path-1-inside-1)"/>
</svg>
