<svg width="24" height="25" viewBox="0 0 24 25" fill="none" xmlns="http://www.w3.org/2000/svg">
<path d="M16.05 12.5C16.05 10.1562 14.25 8.28125 12 8.28125C9.75 8.28125 7.95 10.1562 7.95 12.5C7.95 14.8438 9.75 16.7188 12 16.7188C14.25 16.7188 16.05 14.8438 16.05 12.5ZM18.15 12.5C18.15 16.0938 15.45 18.9062 12 18.9062C8.55 18.9062 5.85 16.0938 5.85 12.5C5.85 8.90625 8.55 6.09375 12 6.09375C15.45 6.09375 18.15 8.90625 18.15 12.5ZM19.8 5.78125C19.8 6.71875 19.2 7.34375 18.3 7.34375C17.4 7.34375 16.8 6.71875 16.8 5.78125C16.8 4.84375 17.4 4.21875 18.3 4.21875C19.2 4.21875 19.8 5 19.8 5.78125ZM12 2.1875C10.2 2.1875 6.45 2.03125 4.95 2.65625C3.9 3.125 3 4.0625 2.7 5.15625C2.1 6.71875 2.25 10.625 2.25 12.5C2.25 14.375 2.1 18.2812 2.7 19.8438C3 20.9375 3.9 21.875 4.95 22.1875C6.45 22.8125 10.35 22.6562 12 22.6562C13.65 22.6562 17.55 22.8125 19.05 22.1875C20.1 21.7188 20.85 20.9375 21.3 19.8438C21.9 18.125 21.75 14.2188 21.75 12.5C21.75 10.7812 21.9 6.71875 21.3 5.15625C21 4.0625 20.1 3.125 19.05 2.8125C17.55 2.03125 13.8 2.1875 12 2.1875ZM24 12.5V17.6562C24 19.5312 23.4 21.4063 22.05 22.9688C20.7 24.375 18.9 25 16.95 25H7.05C5.25 25 3.45 24.375 1.95 22.9688C0.75 21.5625 0 19.6875 0 17.6562V12.5V7.34375C0 5.3125 0.75 3.4375 1.95 2.03125C3.45 0.78125 5.25 0 7.05 0H16.95C18.75 0 20.55 0.625 22.05 2.03125C23.25 3.4375 24 5.3125 24 7.34375V12.5Z" fill="#424242"/>
</svg>
