<svg width="43" height="43" viewBox="0 0 43 43" fill="none" xmlns="http://www.w3.org/2000/svg">
<path d="M21.5 3.58325C14.5662 3.58325 8.95831 9.19117 8.95831 16.1249C8.95831 25.5312 21.5 39.4166 21.5 39.4166C21.5 39.4166 34.0416 25.5312 34.0416 16.1249C34.0416 9.19117 28.4337 3.58325 21.5 3.58325ZM12.5416 16.1249C12.5416 11.1799 16.555 7.16659 21.5 7.16659C26.445 7.16659 30.4583 11.1799 30.4583 16.1249C30.4583 21.2849 25.2983 29.007 21.5 33.8266C17.7733 29.0428 12.5416 21.2312 12.5416 16.1249Z" fill="white"/>
<path d="M21.5 20.6041C23.9738 20.6041 25.9791 18.5987 25.9791 16.1249C25.9791 13.6511 23.9738 11.6458 21.5 11.6458C19.0262 11.6458 17.0208 13.6511 17.0208 16.1249C17.0208 18.5987 19.0262 20.6041 21.5 20.6041Z" fill="white"/>
</svg>
