<svg width="39" height="26" viewBox="0 0 39 26" fill="none" xmlns="http://www.w3.org/2000/svg">
<path fill-rule="evenodd" clip-rule="evenodd" d="M0 2.16667C0 1.59203 0.293494 1.04093 0.815917 0.634602C1.33834 0.228274 2.0469 0 2.78571 0H36.2143C36.9531 0 37.6617 0.228274 38.1841 0.634602C38.7065 1.04093 39 1.59203 39 2.16667C39 2.7413 38.7065 3.2924 38.1841 3.69873C37.6617 4.10506 36.9531 4.33333 36.2143 4.33333H2.78571C2.0469 4.33333 1.33834 4.10506 0.815917 3.69873C0.293494 3.2924 0 2.7413 0 2.16667ZM0 13C0 12.4254 0.293494 11.8743 0.815917 11.4679C1.33834 11.0616 2.0469 10.8333 2.78571 10.8333H36.2143C36.9531 10.8333 37.6617 11.0616 38.1841 11.4679C38.7065 11.8743 39 12.4254 39 13C39 13.5746 38.7065 14.1257 38.1841 14.5321C37.6617 14.9384 36.9531 15.1667 36.2143 15.1667H2.78571C2.0469 15.1667 1.33834 14.9384 0.815917 14.5321C0.293494 14.1257 0 13.5746 0 13ZM0 23.8333C0 23.2587 0.293494 22.7076 0.815917 22.3013C1.33834 21.8949 2.0469 21.6667 2.78571 21.6667H36.2143C36.9531 21.6667 37.6617 21.8949 38.1841 22.3013C38.7065 22.7076 39 23.2587 39 23.8333C39 24.408 38.7065 24.9591 38.1841 25.3654C37.6617 25.7717 36.9531 26 36.2143 26H2.78571C2.0469 26 1.33834 25.7717 0.815917 25.3654C0.293494 24.9591 0 24.408 0 23.8333Z" fill="white"/>
</svg>
