<svg width="31" height="21" viewBox="0 0 31 21" fill="none" xmlns="http://www.w3.org/2000/svg">
<path fill-rule="evenodd" clip-rule="evenodd" d="M0 1.75C0 1.28587 0.23329 0.840752 0.648549 0.512563C1.06381 0.184375 1.62702 0 2.21429 0H28.7857C29.373 0 29.9362 0.184375 30.3515 0.512563C30.7667 0.840752 31 1.28587 31 1.75C31 2.21413 30.7667 2.65925 30.3515 2.98744C29.9362 3.31563 29.373 3.5 28.7857 3.5H2.21429C1.62702 3.5 1.06381 3.31563 0.648549 2.98744C0.23329 2.65925 0 2.21413 0 1.75ZM0 10.5C0 10.0359 0.23329 9.59075 0.648549 9.26256C1.06381 8.93437 1.62702 8.75 2.21429 8.75H28.7857C29.373 8.75 29.9362 8.93437 30.3515 9.26256C30.7667 9.59075 31 10.0359 31 10.5C31 10.9641 30.7667 11.4092 30.3515 11.7374C29.9362 12.0656 29.373 12.25 28.7857 12.25H2.21429C1.62702 12.25 1.06381 12.0656 0.648549 11.7374C0.23329 11.4092 0 10.9641 0 10.5ZM0 19.25C0 18.7859 0.23329 18.3408 0.648549 18.0126C1.06381 17.6844 1.62702 17.5 2.21429 17.5H28.7857C29.373 17.5 29.9362 17.6844 30.3515 18.0126C30.7667 18.3408 31 18.7859 31 19.25C31 19.7141 30.7667 20.1592 30.3515 20.4874C29.9362 20.8156 29.373 21 28.7857 21H2.21429C1.62702 21 1.06381 20.8156 0.648549 20.4874C0.23329 20.1592 0 19.7141 0 19.25Z" fill="white"/>
</svg>
