<svg width="34" height="27" viewBox="0 0 34 27" fill="none" xmlns="http://www.w3.org/2000/svg">
<path fill-rule="evenodd" clip-rule="evenodd" d="M0 2.25C0 1.65326 0.255867 1.08097 0.711312 0.65901C1.16676 0.237053 1.78447 0 2.42857 0H31.5714C32.2155 0 32.8332 0.237053 33.2887 0.65901C33.7441 1.08097 34 1.65326 34 2.25C34 2.84674 33.7441 3.41903 33.2887 3.84099C32.8332 4.26295 32.2155 4.5 31.5714 4.5H2.42857C1.78447 4.5 1.16676 4.26295 0.711312 3.84099C0.255867 3.41903 0 2.84674 0 2.25ZM0 13.5C0 12.9033 0.255867 12.331 0.711312 11.909C1.16676 11.4871 1.78447 11.25 2.42857 11.25H31.5714C32.2155 11.25 32.8332 11.4871 33.2887 11.909C33.7441 12.331 34 12.9033 34 13.5C34 14.0967 33.7441 14.669 33.2887 15.091C32.8332 15.5129 32.2155 15.75 31.5714 15.75H2.42857C1.78447 15.75 1.16676 15.5129 0.711312 15.091C0.255867 14.669 0 14.0967 0 13.5ZM0 24.75C0 24.1533 0.255867 23.581 0.711312 23.159C1.16676 22.7371 1.78447 22.5 2.42857 22.5H31.5714C32.2155 22.5 32.8332 22.7371 33.2887 23.159C33.7441 23.581 34 24.1533 34 24.75C34 25.3467 33.7441 25.919 33.2887 26.341C32.8332 26.7629 32.2155 27 31.5714 27H2.42857C1.78447 27 1.16676 26.7629 0.711312 26.341C0.255867 25.919 0 25.3467 0 24.75Z" fill="#202020"/>
</svg>
