<svg width="160" height="160" viewBox="0 0 160 160" fill="none" xmlns="http://www.w3.org/2000/svg">
<path d="M114.27 30.04C100.82 30.41 90.395 34.06 80.245 37.59C69.39 41.36 59.145 44.915 44.95 45.06C35.465 45.21 25.965 43.57 16.63 40.34L10 38.05V123.46L13.33 124.645C22.025 127.72 30.915 129.495 39.765 129.915C41.17 129.98 42.545 130.015 43.895 130.015C58.96 130.015 70.495 126.015 81.68 122.155C93.47 118.075 104.59 114.22 119.765 114.935C127.808 115.348 135.748 116.938 143.33 119.655L150 122.015V36.57L146.71 35.37C138.202 32.2715 129.271 30.491 120.225 30.09C118.241 30.002 116.255 29.9853 114.27 30.04ZM114.54 39.97C116.24 39.92 117.98 39.92 119.785 39.99C121.655 40.07 123.525 40.24 125.39 40.46C126.151 43.5973 128.098 46.3175 130.822 48.049C133.547 49.7805 136.837 50.3884 140 49.745V95.255C138.362 94.9217 136.674 94.9209 135.036 95.2527C133.397 95.5845 131.843 96.2422 130.463 97.1866C129.084 98.1311 127.909 99.343 127.007 100.751C126.106 102.158 125.496 103.732 125.215 105.38C123.559 105.21 121.898 105.086 120.235 105.01C103.16 104.26 90.57 108.555 78.4 112.775C66.595 116.865 55.41 120.73 40.245 120.01C38.3563 119.911 36.4717 119.744 34.595 119.51C33.8278 116.381 31.8801 113.671 29.1597 111.946C26.4393 110.221 23.157 109.615 20 110.255V64.745C21.6477 65.0804 23.3463 65.0788 24.9934 64.7406C26.6406 64.4023 28.2022 63.7342 29.5844 62.7766C30.9666 61.8191 32.1408 60.5917 33.0363 59.1685C33.9317 57.7452 34.53 56.1555 34.795 54.495C38.22 54.85 41.645 55.055 45.06 55C60.885 54.84 72.39 50.835 83.525 46.965C93.33 43.55 102.675 40.34 114.54 39.97ZM80 60C80 67.195 77.195 70 70 70V80C73.88 80 77.185 79.245 80 77.94V100H90V60H80ZM117.5 65C115.511 65 113.603 65.7902 112.197 67.1967C110.79 68.6032 110 70.5109 110 72.5C110 74.4891 110.79 76.3968 112.197 77.8033C113.603 79.2098 115.511 80 117.5 80C119.489 80 121.397 79.2098 122.803 77.8033C124.21 76.3968 125 74.4891 125 72.5C125 70.5109 124.21 68.6032 122.803 67.1967C121.397 65.7902 119.489 65 117.5 65ZM42.5 80C40.5109 80 38.6032 80.7902 37.1967 82.1967C35.7902 83.6032 35 85.5109 35 87.5C35 89.4891 35.7902 91.3968 37.1967 92.8033C38.6032 94.2098 40.5109 95 42.5 95C44.4891 95 46.3968 94.2098 47.8033 92.8033C49.2098 91.3968 50 89.4891 50 87.5C50 85.5109 49.2098 83.6032 47.8033 82.1967C46.3968 80.7902 44.4891 80 42.5 80Z" fill="white"/>
</svg>
