<svg width="35" height="35" viewBox="0 0 35 35" fill="none" xmlns="http://www.w3.org/2000/svg">
<path d="M29.7412 10.6768L22.3857 3.32129C22.1807 3.11621 21.9038 3 21.6133 3H7.09375C6.48877 3 6 3.48877 6 4.09375V32.5312C6 33.1362 6.48877 33.625 7.09375 33.625H28.9688C29.5737 33.625 30.0625 33.1362 30.0625 32.5312V11.4526C30.0625 11.1621 29.9463 10.8818 29.7412 10.6768ZM27.54 11.9551H21.1074V5.52246L27.54 11.9551ZM27.6016 31.1641H8.46094V5.46094H18.7832V12.8438C18.7832 13.2245 18.9344 13.5896 19.2037 13.8588C19.4729 14.1281 19.838 14.2793 20.2188 14.2793H27.6016V31.1641ZM17.7578 21.9355H11.4688C11.3184 21.9355 11.1953 22.0586 11.1953 22.209V23.8496C11.1953 24 11.3184 24.123 11.4688 24.123H17.7578C17.9082 24.123 18.0312 24 18.0312 23.8496V22.209C18.0312 22.0586 17.9082 21.9355 17.7578 21.9355ZM11.1953 17.5605V19.2012C11.1953 19.3516 11.3184 19.4746 11.4688 19.4746H24.5938C24.7441 19.4746 24.8672 19.3516 24.8672 19.2012V17.5605C24.8672 17.4102 24.7441 17.2871 24.5938 17.2871H11.4688C11.3184 17.2871 11.1953 17.4102 11.1953 17.5605Z" fill="white"/>
</svg>
