<svg width="160" height="160" viewBox="0 0 160 160" fill="none" xmlns="http://www.w3.org/2000/svg">
<path d="M34.3763 82.9818L10.0688 58.6772C3.57594 52.1851 0 43.5536 0 34.3722C0 15.4194 15.4213 0 34.3763 0C53.3316 0 68.7525 15.4194 68.7525 34.3722C68.7525 43.5536 65.1769 52.1851 58.6838 58.6772L34.3763 82.9818ZM34.3763 9.3739C20.5906 9.3739 9.37501 20.5882 9.37501 34.3722C9.37501 41.0495 11.9756 47.3272 16.6978 52.0489L34.3763 69.7252L52.055 52.0489C56.7772 47.3272 59.3778 41.0495 59.3778 34.3722C59.3778 20.5882 48.1622 9.3739 34.3763 9.3739Z" fill="white"/>
<path d="M34.3762 49.9967C25.7603 49.9967 18.7506 42.9878 18.7506 34.3728C18.7506 25.7579 25.7603 18.749 34.3762 18.749C42.9922 18.749 50.0019 25.7579 50.0019 34.3728C50.0019 42.9878 42.9922 49.9967 34.3762 49.9967ZM34.3762 28.1229C30.9297 28.1229 28.1256 30.9267 28.1256 34.3728C28.1256 37.819 30.9297 40.6227 34.3762 40.6227C37.8228 40.6227 40.6269 37.819 40.6269 34.3728C40.6269 30.9267 37.8228 28.1229 34.3762 28.1229Z" fill="white"/>
<path d="M134.999 160L117.32 142.324C112.598 137.602 109.998 131.324 109.998 124.647C109.998 110.863 121.213 99.6487 134.999 99.6487C148.784 99.6487 160 110.863 160 124.647C160 131.324 157.4 137.602 152.677 142.324L134.999 160ZM123.949 135.695L134.999 146.743L146.048 135.695C148.999 132.744 150.625 128.82 150.625 124.647C150.625 116.031 143.615 109.022 134.999 109.022C126.383 109.022 119.373 116.031 119.373 124.647C119.373 128.82 120.998 132.744 123.949 135.695Z" fill="white"/>
<path d="M112.188 159.981H59.8588C43.2231 159.981 29.6891 146.448 29.6891 129.815C29.6891 113.181 43.2231 99.6483 59.8588 99.6483H77.2538C82.3847 99.6483 86.5588 95.4748 86.5588 90.3445C86.5588 85.2142 82.3847 81.0406 77.2538 81.0406H59.0656V71.6667H77.2538C87.5541 71.6667 95.9338 80.0454 95.9338 90.3445C95.9338 100.644 87.5541 109.022 77.2538 109.022H59.8588C48.3925 109.022 39.0641 118.35 39.0641 129.814C39.0641 141.279 48.3922 150.607 59.8588 150.607H112.188V159.981H112.188Z" fill="white"/>
</svg>
