<svg width="26" height="26" viewBox="0 0 26 26" fill="none" xmlns="http://www.w3.org/2000/svg">
<path fill-rule="evenodd" clip-rule="evenodd" d="M0.545486 14.4494C0.717961 14.6239 0.922854 14.7624 1.14843 14.8569C1.37401 14.9514 1.61583 15 1.86006 15C2.10428 15 2.34611 14.9514 2.57168 14.8569C2.79726 14.7624 3.00215 14.6239 3.17463 14.4494L13.0005 4.52758L22.8263 14.4494C23.175 14.8013 23.6479 14.999 24.1409 14.999C24.634 14.999 25.1068 14.8013 25.4555 14.4494C25.8041 14.0975 26 13.6202 26 13.1225C26 12.6248 25.8041 12.1475 25.4555 11.7956L14.3151 0.550605C14.1426 0.37607 13.9377 0.237596 13.7121 0.143114C13.4865 0.0486322 13.2447 0 13.0005 0C12.7563 0 12.5144 0.0486322 12.2889 0.143114C12.0633 0.237596 11.8584 0.37607 11.6859 0.550605L0.545486 11.7956C0.372574 11.9697 0.235387 12.1765 0.141784 12.4042C0.0481801 12.6319 0 12.876 0 13.1225C0 13.369 0.0481801 13.6131 0.141784 13.8408C0.235387 14.0685 0.372574 14.2753 0.545486 14.4494V14.4494Z" fill="white"/>
<path fill-rule="evenodd" clip-rule="evenodd" d="M13 26C13.5304 26 14.0391 25.8068 14.4142 25.463C14.7893 25.1192 15 24.6529 15 24.1667V5.83333C15 5.3471 14.7893 4.88079 14.4142 4.53697C14.0391 4.19315 13.5304 4 13 4C12.4696 4 11.9609 4.19315 11.5858 4.53697C11.2107 4.88079 11 5.3471 11 5.83333V24.1667C11 24.6529 11.2107 25.1192 11.5858 25.463C11.9609 25.8068 12.4696 26 13 26Z" fill="white"/>
</svg>
